<?xml version="1.0" encoding="utf-8"?>
<!-- Generator: Adobe Illustrator 15.1.0, SVG Export Plug-In . SVG Version: 6.00 Build 0)  -->
<!DOCTYPE svg PUBLIC "-//W3C//DTD SVG 1.0//EN" "http://www.w3.org/TR/2001/REC-SVG-20010904/DTD/svg10.dtd">
<svg version="1.0" id="campus" xmlns="http://www.w3.org/2000/svg" xmlns:xlink="http://www.w3.org/1999/xlink" x="0px" y="0px"
	 width="792px" height="792px" viewBox="0 0 792 792" enable-background="new 0 0 792 792" xml:space="preserve">
<path id="e25_1_" opacity="0.65" enable-background="new    " d="M496.617,321.182l-3.721,35.388l50.515-16.413l6.786-64.567l0,0
	l-153.702-16.155l5.158-49.079l-36.976-3.885l-8.369,79.617h0.001l-2.115,20.125L496.617,321.182z"/>
<path id="e23_1_" opacity="0.65" enable-background="new    " d="M492.896,356.57L473.58,540.365l48.255,5.072l21.576-205.28
	L492.896,356.57z"/>
<path id="e19_1_" opacity="0.65" enable-background="new    " d="M240.326,90.345l55.877,5.872l-15.918,151.492l-55.877-5.872
	L240.326,90.345z"/>
<path id="e18_1_" opacity="0.65" enable-background="new    " d="M284.61,206.599l-4.321,41.107l-55.879-5.874l-5.807,55.248
	l111.232,11.691l10.128-96.354L284.61,206.599z"/>
<path id="e17_1_" opacity="0.65" enable-background="new    " d="M323.598,368.173l6.237-59.402L218.603,297.08l-6.139,59.741
	L323.598,368.173z"/>
<path id="e15_1_" opacity="0.65" enable-background="new    " d="M294.113,571.029l123.713-56.679l44.886,97.974l-123.713,56.679
	L294.113,571.029z"/>
<path id="e14_1_" opacity="0.65" enable-background="new    " d="M247.679,469.835l101.21-46.369l46.369,101.212l-101.21,46.369
	L247.679,469.835z"/>
</svg>
